mtllib materials.mtl
v -0.07513595 0.4249899 -0.2092347
v -0.09069449 0.4267814 -0.2460412
v -0.05394363 0.4246048 -0.2616822
v -0.03838509 0.4228133 -0.2248756
v -0.13123 -0.4029464 -0.2258198
v -0.09447914 -0.405123 -0.2414607
v -0.1100377 -0.4033315 -0.2782674
v -0.1467885 -0.4011549 -0.2626264
v 0.1521184 0.4010805 0.2649348
v 0.1343908 0.4030198 0.2291301
v 0.1701213 0.4006205 0.2113094
v 0.1878488 0.3986813 0.247114
v 0.08962786 -0.4264474 0.2510547
v 0.1253583 -0.4288467 0.233234
v 0.1076308 -0.4269074 0.1974293
v 0.07190037 -0.4245082 0.21525
v -0.1100643 -0.3588873 -0.2614202
v -0.1642776 -0.3537929 -0.2362216
v -0.1681646 -0.3936023 -0.2365363
v -0.1139514 -0.3986967 -0.261735
v 0.1069368 -0.3838065 0.2104799
v 0.1030498 -0.4236159 0.2101651
v 0.04883647 -0.4185216 0.2353638
v 0.05272365 -0.3787121 0.2356786
v 0.1069664 0.4102126 0.2939462
v 0.1792339 0.4053507 0.2599791
v 0.1163813 -0.4321802 0.2461359
v 0.04411381 -0.4273183 0.2801031
v -0.1379905 0.4372735 -0.2310908
v -0.2008431 -0.4002573 -0.244934
v -0.1285756 -0.4051192 -0.2789011
v -0.065723 0.4324116 -0.2650579
v -0.0526458 0.4241186 -0.242857
v -0.106664 0.4276239 -0.2169776
v -0.109588 0.387737 -0.2176785
v -0.05556983 0.3842318 -0.2435579
v 0.170476 0.3995197 0.2261968
v 0.1675519 0.3596328 0.2254959
v 0.1135337 0.3631381 0.2513754
v 0.1164578 0.4030249 0.2520763
v -0.08778131 0.02219152 -0.2560318
v -0.1418849 0.02255261 -0.2300957
v -0.1428672 -0.01740754 -0.2315887
v -0.08876371 -0.0177685 -0.2575247
v 0.1366566 -0.0008307695 0.212474
v 0.1356743 -0.04079092 0.210981
v 0.08157074 -0.04042983 0.236917
v 0.08255315 -0.0004698038 0.23841
v 0.105692 0.3207017 0.2816288
v 0.1131762 0.322574 0.2978051
v 0.1879768 0.3894747 0.259468
v 0.1053017 0.4006877 0.280178
v 0.1777748 0.4004269 0.246302
v 0.185259 0.402299 0.2624783
v 0.1127859 0.4025599 0.2963542
v 0.1790663 0.3878829 0.2459785
v -0.1427474 0.3529632 -0.2421993
v -0.1361377 0.35263 -0.2255443
v -0.05547661 0.4183278 -0.2523429
v -0.1384497 0.4325141 -0.2349066
v -0.06423527 0.4312406 -0.2647494
v -0.05762559 0.4309074 -0.2480944
v -0.13184 0.4321809 -0.2182515
v -0.06365061 0.418745 -0.2663754
v 0.06166524 -0.3490025 0.2832264
v 0.05313069 -0.3490235 0.2674672
v 0.1219584 -0.420422 0.2261683
v 0.0548116 -0.4286075 0.2792165
v 0.1252258 -0.4327688 0.2414737
v 0.1166912 -0.4327897 0.2257146
v 0.04627699 -0.4286284 0.2634574
v 0.1274765 -0.4203568 0.2414472
v -0.1830529 -0.3158028 -0.2355952
v -0.190846 -0.3165849 -0.251715
v -0.1212893 -0.3910403 -0.2857569
v -0.1909451 -0.3954126 -0.2355698
v -0.1189275 -0.4025632 -0.2696627
v -0.1267206 -0.4033453 -0.2857825
v -0.1987382 -0.3961947 -0.2516895
v -0.1164861 -0.3902017 -0.2702609
vn 0.06758343 0.9975136 0.01998207
vn -0.06758343 -0.9975136 -0.01998207
vn -0.9187712 0.05441549 0.3910223
vn 0.9187712 -0.05441549 -0.3910223
vn 0.3889627 -0.0447856 0.9201643
vn -0.3889627 0.0447856 -0.9201643
vn 0.07528996 0.9970214 0.01672285
vn -0.07528996 -0.9970214 -0.01672285
vn -0.8932613 0.05998182 0.4455183
vn 0.8932613 -0.05998182 -0.4455183
vn 0.4431882 -0.04848095 0.8951167
vn -0.4431882 0.04848095 -0.8951167
vn -0.4173097 0.04792181 -0.9074999
vn 0.4173097 -0.04792181 0.9074999
vn 0.09717815 0.995236 0.00786771
vn -0.09717815 -0.995236 -0.00786771
vn 0.9035537 -0.08490592 -0.4199782
vn -0.9035537 0.08490592 0.4199782
vn 0.4223395 -0.04665678 0.9052362
vn -0.4223395 0.04665678 -0.9052362
vn 0.07482447 0.9970605 0.01647999
vn -0.07482447 -0.9970605 -0.01647999
vn -0.9033441 0.0607737 0.4245892
vn 0.9033441 -0.0607737 -0.4245892
vn -0.4290804 0.04730575 -0.9020267
vn 0.4290804 -0.04730575 0.9020267
vn 0.07310037 0.9971707 0.01752253
vn -0.07310037 -0.9971707 -0.01752253
vn 0.9003035 -0.0584199 -0.4313245
vn -0.9003035 0.0584199 0.4313245
vn -0.4316115 0.04427393 -0.9009725
vn 0.4316115 -0.04427393 0.9009725
vn 0.0245593 0.9990013 0.03732572
vn -0.0245593 -0.9990013 -0.03732572
vn 0.9017253 -0.006017037 -0.4322677
vn -0.9017253 0.006017037 0.4322677
vn 0.599723 -0.7779469 -0.1874327
vn -0.0412939 0.9945246 -0.0959986
vn -0.907706 0.003181539 0.4195949
vn 0.8576968 0.2825954 -0.4295302
vn -0.4232222 -0.0187287 -0.9058324
vn 0.4234341 0.01849556 0.9057381
vn 0.5685426 -0.7719068 -0.2844633
vn 0.8248479 0.09927482 -0.5565704
vn 0.5169831 -0.09024066 0.8512256
vn 0.5640147 -0.7902262 -0.2396456
vn 0.0217301 0.9996992 0.0113777
vn -0.9292428 0.01636419 0.3691071
vn 0.8964298 0.2714528 -0.3503242
vn -0.3692876 0.1043716 -0.9234356
vn 0.369491 -0.1046064 0.9233277
vn 0.5390263 -0.7719613 -0.336937
vn 0.860661 0.1050979 -0.4982139
vn 0.4596902 -0.2126747 0.8622381
vn 0.5843032 0.7468774 -0.3174333
vn -0.04518603 -0.9986453 0.02580354
vn -0.8781852 0.05165576 0.4755234
vn 0.828297 -0.3363113 -0.4481283
vn 0.4670726 -0.0843164 0.8801897
vn -0.466848 0.0845356 -0.8802879
vn 0.642047 0.7297629 -0.2349932
vn 0.9272655 -0.1688512 -0.3341677
vn -0.3568612 0.1855636 -0.9155415
vn 0.6099072 0.7205771 -0.3298211
vn -0.0617966 -0.9950241 0.07815456
vn -0.8984086 0.08920354 0.4300055
vn 0.8428997 -0.3712409 -0.3894874
vn 0.4243449 -0.0415444 0.9045472
vn -0.4241125 0.0417549 -0.9046465
vn 0.6634896 0.7073027 -0.2439353
vn 0.9390526 -0.1990278 -0.2802998
vn -0.3110563 0.1392506 -0.9401348
vt 0.07153199 0.08947846
vt 0.07552928 0.08933138
vt 0.07567635 0.09332868
vt 0.07167906 0.09347575
vt -0.07153198 0.08947848
vt -0.07167905 0.09347577
vt -0.07567636 0.0933287
vt -0.07552928 0.0893314
vt 0.07974876 0.1680007
vt 0.07413046 0.08519106
vt 0.07812129 0.0849203
vt 0.08373959 0.1677299
vt -0.07974876 0.1680007
vt -0.08373959 0.1677299
vt -0.07812129 0.08492029
vt -0.07413046 0.08519106
vt 0.1082115 0.1633915
vt 0.1063047 0.1669078
vt 0.03334213 0.1273419
vt 0.03524892 0.1238256
vt -0.1082115 0.1633915
vt -0.03524893 0.1238256
vt -0.03334213 0.1273419
vt -0.1063047 0.1669078
vt 0.01904517 0.09242193
vt 0.02302646 0.09203539
vt 0.02341299 0.09601667
vt 0.01943172 0.09640321
vt -0.01904518 0.09242195
vt -0.01943172 0.09640323
vt -0.023413 0.09601669
vt -0.02302646 0.09203541
vt 0.03982035 0.1695738
vt 0.0255277 0.08781362
vt 0.02946795 0.08712482
vt 0.04376061 0.168885
vt -0.03982036 0.1695738
vt -0.04376061 0.168885
vt -0.02946795 0.08712482
vt -0.0255277 0.08781362
vt 0.1064665 0.1664613
vt 0.1045243 0.1699581
vt 0.03196434 0.1296586
vt 0.03390648 0.1261618
vt -0.1064665 0.1664613
vt -0.03390648 0.1261618
vt -0.03196434 0.1296586
vt -0.1045243 0.1699581
vt -0.03648185 0.1305581
vt -0.03951342 0.1253803
vt -0.03606155 0.1233593
vt -0.03302998 0.1285371
vt 0.03648186 0.1305581
vt 0.03302999 0.1285371
vt 0.03606156 0.1233593
vt 0.03951342 0.1253803
vt 0.07426171 0.08936968
vt 0.02238321 0.09292242
vt 0.02197327 0.08693644
vt 0.07385178 0.08338369
vt -0.07426171 0.08936967
vt -0.07385178 0.08338369
vt -0.02197327 0.08693644
vt -0.0223832 0.09292243
vt -0.07884283 0.08889094
vt -0.07837814 0.08491802
vt -0.02673022 0.09095901
vt -0.02719491 0.09493192
vt 0.07884283 0.08889094
vt 0.02719491 0.09493192
vt 0.02673022 0.09095901
vt 0.07837814 0.08491803
vt 0.1098828 0.161752
vt 0.1060068 0.1687504
vt 0.03252437 0.1280524
vt 0.03640037 0.121054
vt -0.1098828 0.161752
vt -0.03640037 0.121054
vt -0.03252437 0.1280524
vt -0.1060068 0.1687504
vt 0.01792656 0.08717699
vt 0.07576887 0.08290273
vt 0.07635842 0.09088098
vt 0.01851612 0.09515523
vt -0.01792656 0.08717699
vt -0.01851612 0.09515522
vt -0.07635842 0.09088098
vt -0.07576887 0.08290273
vt 0.03442946 0.171446
vt 0.0233205 0.08818385
vt 0.08081106 0.08051337
vt 0.09192002 0.1637756
vt -0.03442946 0.171446
vt -0.09192002 0.1637756
vt -0.08081106 0.08051338
vt -0.0233205 0.08818385
vt -0.1049646 0.1691244
vt -0.1078624 0.1638706
vt -0.1043599 0.1619387
vt -0.1014621 0.1671925
vt 0.1049646 0.1691244
vt 0.1014621 0.1671925
vt 0.1043599 0.1619387
vt 0.1078624 0.1638706
vt 0.07383016 0.09172043
vt 0.02200089 0.09593068
vt 0.02151509 0.08995038
vt 0.07334436 0.08574013
vt -0.07383016 0.09172043
vt -0.07334436 0.08574013
vt -0.02151509 0.08995038
vt -0.02200089 0.09593068
vt -0.09074901 0.1621
vt -0.09016619 0.1581427
vt -0.03872114 0.1657195
vt -0.03930397 0.1696768
vt 0.09074902 0.1621
vt 0.03930397 0.1696768
vt 0.03872115 0.1657195
vt 0.0901662 0.1581427
vt -0.06986497 0.1496599
vt -0.07248317 0.1442613
vt -0.06888409 0.1425158
vt -0.0662659 0.1479144
vt 0.06986497 0.1496599
vt 0.0662659 0.1479144
vt 0.06888411 0.1425158
vt 0.07248317 0.1442613
vt 0.07469882 0.09831233
vt 0.02287819 0.1026278
vt 0.02238026 0.09664848
vt 0.07420088 0.09233303
vt -0.07469881 0.09831233
vt -0.07420088 0.09233303
vt -0.02238026 0.09664848
vt -0.02287819 0.1026278
vt -0.08701696 0.115103
vt -0.08634 0.1111607
vt -0.03509007 0.1199609
vt -0.03576702 0.1239033
vt 0.08701696 0.115103
vt 0.03576702 0.1239032
vt 0.03509007 0.1199609
vt 0.08634001 0.1111607
vt -0.01129184 0.1771347
vt -0.009514716 0.1773665
vt -0.010544 0.1880598
vt 0.001363271 0.09941982
vt 0.002503181 0.1073382
vt 0.0007282248 0.107586
vt -0.0004116823 0.09966767
vt 0.0348903 0.156759
vt 0.03652544 0.1645901
vt 0.03480912 0.165106
vt 0.03317399 0.1572749
vt -0.07518303 0.1058958
vt -0.07583421 0.1070727
vt -0.07717642 0.1058851
vt -0.1027324 0.1579691
vt -0.1053346 0.1682116
vt -0.1065253 0.168628
vt -0.1099583 0.1614021
vt 0.1028698 0.1580315
vt 0.1100957 0.1614648
vt 0.1066624 0.1686906
vt -0.021599 0.1880083
vt -0.02316575 0.187579
vt -0.02207172 0.1770679
vt -0.07695207 0.1370924
vt -0.07621558 0.1360682
vt -0.07495864 0.1370974
vt 0.1032524 0.1706703
vt 0.1019265 0.1704448
vt 0.09964472 0.1599472
vt -0.07560624 0.1725587
vt -0.07381459 0.1726019
vt -0.07371119 0.1833441
vt 0.07313228 0.09041148
vt 0.07337586 0.09840777
vt 0.0715843 0.09845475
vt 0.07134072 0.09045846
vt 0.08003776 0.1596225
vt 0.07977477 0.1676182
vt 0.07798515 0.1677136
vt 0.07824813 0.1597179
vt -0.08753233 0.1231764
vt -0.08742838 0.1245174
vt -0.08920262 0.1242644
vt -0.09990035 0.1523671
vt -0.1023596 0.1626449
vt -0.1035443 0.1630779
vt -0.1070777 0.1559005
vt 0.1000162 0.152437
vt 0.1071936 0.1559704
vt 0.1036602 0.1631478
vt -0.08447876 0.1825678
vt -0.08608251 0.182309
vt -0.08612218 0.1717412
vt -0.1167734 0.1191002
vt -0.1163156 0.1179248
vt -0.1148418 0.1186079
vt 0.09077924 0.1675995
vt 0.08945294 0.1673758
vt 0.08715706 0.1568813
vt 0.003719214 0.008402657
vt 0.005405168 0.007794822
vt 0.009387395 0.01777218
vt -0.01552223 0.08896722
vt -0.01674691 0.09687293
vt -0.01851679 0.09659107
vt -0.0172921 0.08868536
vt 0.02828295 0.09386089
vt 0.02669431 0.08602021
vt 0.02841366 0.08551452
vt 0.03000231 0.09335519
vt -0.02520194 0.1130753
vt -0.02523405 0.1117307
vt -0.02347587 0.1120781
vt 0.04174457 0.1262486
vt 0.03190531 0.1301046
vt 0.03087283 0.1293799
vt 0.03474302 0.1223784
vt -0.04161135 0.1261647
vt -0.03460984 0.1222945
vt -0.03073958 0.129296
vt 0.01814128 0.01507433
vt 0.01651693 0.01509601
vt 0.01465527 0.004693384
vt -0.01725967 0.1006927
vt -0.01719157 0.1019523
vt -0.018816 0.1019383
vt -0.02972221 0.1261657
vt -0.03066099 0.1271289
vt -0.04059666 0.1230437
vt 0.0555035 -0.01760978
vt 0.05720878 -0.01816105
vt 0.06085608 -0.008056445
vt -0.06990816 0.07779421
vt -0.07094067 0.0857273
vt -0.07271685 0.08548846
vt -0.07168435 0.07755537
vt 0.08087266 0.09149121
vt 0.07975118 0.08357021
vt 0.08149745 0.08316723
vt 0.08261894 0.09108823
vt -0.07905114 0.1125951
vt -0.07913346 0.1112526
vt -0.07736353 0.1115341
vt 0.04384201 0.1260837
vt 0.03389376 0.1296493
vt 0.03288301 0.1288945
vt 0.03695712 0.1220096
vt -0.04370696 0.1259774
vt -0.03682209 0.1219032
vt -0.03274795 0.1287881
vt 0.07425392 0.003582538
vt 0.07263131 0.003504136
vt 0.0714139 -0.006993405
vt -0.06981111 0.1102799
vt -0.06969784 0.1115362
vt -0.07132174 0.1115806
vt -0.02974849 0.1169806
vt -0.03065967 0.11797
vt -0.04070685 0.1141673
o group590781652
g mesh590781652
usemtl mat18
f 4/4/1 3/3/1 2/2/1 1/1/1
f 8/8/2 7/7/2 6/6/2 5/5/2
f 2/12/3 8/11/3 5/10/3 1/9/3
f 6/16/4 7/15/4 3/14/4 4/13/4
f 5/20/5 6/19/5 4/18/5 1/17/5
f 3/24/6 7/23/6 8/22/6 2/21/6
o group447582764
g mesh447582764
usemtl mat18
f 12/28/7 11/27/7 10/26/7 9/25/7
f 16/32/8 15/31/8 14/30/8 13/29/8
f 10/36/9 16/35/9 13/34/9 9/33/9
f 14/40/10 15/39/10 11/38/10 12/37/10
f 13/44/11 14/43/11 12/42/11 9/41/11
f 11/48/12 15/47/12 16/46/12 10/45/12
o group1928394315
g mesh1928394315
usemtl mat18
f 20/52/13 19/51/13 18/50/13 17/49/13
f 24/56/14 23/55/14 22/54/14 21/53/14
f 18/60/15 24/59/15 21/58/15 17/57/15
f 22/64/16 23/63/16 19/62/16 20/61/16
f 21/68/17 22/67/17 20/66/17 17/65/17
f 19/72/18 23/71/18 24/70/18 18/69/18
o group1589335651
g mesh1589335651
usemtl mat21
f 28/76/19 27/75/19 26/74/19 25/73/19
f 32/80/20 31/79/20 30/78/20 29/77/20
f 26/84/21 32/83/21 29/82/21 25/81/21
f 30/88/22 31/87/22 27/86/22 28/85/22
f 29/92/23 30/91/23 28/90/23 25/89/23
usemtl mat25
f 27/96/24 31/95/24 32/94/24 26/93/24
o group1409990735
g mesh1409990735
usemtl mat18
f 36/100/25 35/99/25 34/98/25 33/97/25
f 40/104/26 39/103/26 38/102/26 37/101/26
f 34/108/27 40/107/27 37/106/27 33/105/27
f 38/112/28 39/111/28 35/110/28 36/109/28
f 37/116/29 38/115/29 36/114/29 33/113/29
f 35/120/30 39/119/30 40/118/30 34/117/30
o group1987881395
g mesh1987881395
usemtl mat18
f 44/124/31 43/123/31 42/122/31 41/121/31
f 48/128/32 47/127/32 46/126/32 45/125/32
f 42/132/33 48/131/33 45/130/33 41/129/33
f 46/136/34 47/135/34 43/134/34 44/133/34
f 45/140/35 46/139/35 44/138/35 41/137/35
f 43/144/36 47/143/36 48/142/36 42/141/36
o group1712354673
g mesh1712354673
usemtl mat21
f 51/147/37 50/146/37 49/145/37
f 55/151/38 54/150/38 53/149/38 52/148/38
f 50/155/39 55/154/39 52/153/39 49/152/39
f 53/158/40 54/157/40 51/156/40
f 52/162/41 53/161/41 56/160/41 49/159/41
f 54/165/42 55/164/42 50/163/42
f 49/168/43 56/167/43 51/166/43
f 51/171/44 56/170/44 53/169/44
f 50/174/45 51/173/45 54/172/45
o group880204337
g mesh880204337
usemtl mat21
f 59/177/46 58/176/46 57/175/46
f 63/181/47 62/180/47 61/179/47 60/178/47
f 58/185/48 63/184/48 60/183/48 57/182/48
f 61/188/49 62/187/49 59/186/49
f 60/192/50 61/191/50 64/190/50 57/189/50
f 62/195/51 63/194/51 58/193/51
f 57/198/52 64/197/52 59/196/52
f 59/201/53 64/200/53 61/199/53
f 58/204/54 59/203/54 62/202/54
o group1705151571
g mesh1705151571
usemtl mat21
f 67/207/55 66/206/55 65/205/55
f 71/211/56 70/210/56 69/209/56 68/208/56
f 66/215/57 71/214/57 68/213/57 65/212/57
f 69/218/58 70/217/58 67/216/58
f 68/222/59 69/221/59 72/220/59 65/219/59
f 70/225/60 71/224/60 66/223/60
f 65/228/61 72/227/61 67/226/61
f 67/231/62 72/230/62 69/229/62
f 66/234/63 67/233/63 70/232/63
o group1613784011
g mesh1613784011
usemtl mat21
f 75/237/64 74/236/64 73/235/64
f 79/241/65 78/240/65 77/239/65 76/238/65
f 74/245/66 79/244/66 76/243/66 73/242/66
f 77/248/67 78/247/67 75/246/67
f 76/252/68 77/251/68 80/250/68 73/249/68
f 78/255/69 79/254/69 74/253/69
f 73/258/70 80/257/70 75/256/70
f 75/261/71 80/260/71 77/259/71
f 74/264/72 75/263/72 78/262/72
